<svg width="15" height="15" viewBox="0 0 15 15" fill="none" xmlns="http://www.w3.org/2000/svg">
<path d="M7.50116 0H7.06382H7.05608H7.00428H6.99632H6.98811H6.97991H6.97475H6.971H6.96585H6.9621H6.95694H6.95343H6.9478H6.93913H6.93069H6.92225H6.91358H6.90491L6.88147 0.001875H6.87257H6.86389H6.85499C6.68108 0.0175781 6.50928 0.0382031 6.33936 0.0642187L6.41179 0.527344C6.77296 0.48 7.13718 0.460312 7.50116 0.46875V0ZM5.19491 0.361172C4.82296 0.480938 4.46108 0.63 4.11257 0.806484L4.3235 1.22461C4.65022 1.05891 4.98936 0.919219 5.33788 0.806484L5.19397 0.361172H5.19491ZM3.11319 1.41586C2.79632 1.64508 2.49796 1.89867 2.22046 2.1743L2.55046 2.50711C2.81085 2.24906 3.09069 2.01164 3.38764 1.79695L3.11319 1.41703V1.41586ZM1.45546 3.0607C1.39288 3.14648 1.33171 3.23367 1.27171 3.32203L1.26421 3.33328L1.25928 3.34078L1.25671 3.34453L1.25178 3.3518L1.24944 3.35531L1.2471 3.35883L1.24475 3.36234L1.24007 3.36937L1.23772 3.37289L1.23538 3.37641L1.23303 3.37992L1.23069 3.38344L1.22858 3.38672L1.22647 3.39L1.22436 3.39328L1.22202 3.3968L1.21991 3.40008L1.2178 3.40313L1.21569 3.40641L1.21358 3.40969L1.21147 3.41273L1.20936 3.41602L1.20749 3.41906L1.20514 3.42258L1.20303 3.42586L1.20116 3.42867L1.19905 3.43195L1.19694 3.43523L1.19483 3.43828L1.19272 3.44156L1.19085 3.44461L1.18874 3.44789L1.18663 3.45117L1.18499 3.45398L1.18311 3.45703L1.18147 3.45961L1.17983 3.46242V3.46359L1.17796 3.46664L1.17632 3.46922L1.17444 3.47227L1.17257 3.47508L1.17093 3.47766L1.16905 3.4807L1.16741 3.48305L1.16553 3.48586V3.48703L1.16366 3.49008L1.16225 3.49242L1.16038 3.49547L1.15874 3.49805V3.49945L1.15733 3.5018L1.15546 3.50484V3.50602L1.15405 3.50813V3.50953L1.15241 3.51211V3.51352L1.12616 3.54844V3.54961L1.12475 3.55172V3.55289L1.12288 3.55594V3.55734L1.12147 3.55945V3.56133L1.12007 3.56367V3.56508L1.11819 3.56789V3.56906L1.11678 3.57141L1.11491 3.57445V3.57586L1.11327 3.57844V3.57984L1.11186 3.58219V3.58336L1.10999 3.58617V3.58734L1.10858 3.58969V3.59109L1.10694 3.59367V3.59508L1.10507 3.59789V3.5993L1.10366 3.60141V3.60258L1.10178 3.60539V3.6068L1.10014 3.60961L1.0985 3.61219V3.61336L1.09663 3.61641V3.61758L1.09522 3.61992V3.62156L1.09358 3.62414V3.62555L1.09171 3.62859V3.62977L1.09053 3.63188V3.63328L1.08889 3.63609V3.6375L1.08749 3.63984V3.64148L1.08608 3.64383V3.64523L1.08421 3.64828V3.64945L1.0828 3.65156V3.65297L1.08116 3.65578V3.65719L1.07975 3.65953V3.66141L1.07858 3.66352V3.66492L1.07694 3.66773V3.66937V3.67125V3.67313L1.07553 3.67547V3.67687L1.07389 3.67992V3.68109L1.07249 3.6832V3.68438L1.07061 3.68742V3.68859L1.06897 3.69117V3.69281L1.06757 3.69516V3.69656L1.06593 3.69938V3.70078L1.06475 3.70289V3.70453L1.06311 3.70711V3.70852L1.06147 3.71156V3.71297L1.0603 3.71508V3.71648L1.05866 3.7193V3.7207L1.05725 3.72305V3.72469L1.05585 3.72703V3.72844L1.05421 3.73125V3.73266L1.05303 3.73477V3.73617L1.05139 3.73898V3.74039L1.04975 3.74297V3.74437L1.04835 3.74672V3.74789L1.04671 3.75094V3.75211L1.0453 3.75469V3.75609L1.04366 3.75867V3.76008L1.04202 3.76312V3.7643L1.04061 3.76664L1.03897 3.76969V3.77086L1.03733 3.77367L1.03593 3.77625V3.77766L1.03428 3.7807V3.78187L1.03288 3.78445V3.78562L1.03124 3.78844V3.78984L1.0296 3.79289V3.79406L1.02843 3.79641V3.79758L1.02678 3.80062V3.8018L1.02514 3.80461V3.80578L1.02374 3.80836V3.80977L1.0221 3.81281L1.02069 3.81516L1.01905 3.8182V3.81937L1.01741 3.82242V3.82359L1.016 3.82594L1.01436 3.82898L1.01272 3.83203L1.01108 3.83508L1.00921 3.83836L1.0078 3.84117L1.00593 3.84445L1.00428 3.8475L1.00288 3.85031L0.93866 3.86719L0.937019 3.87L0.935144 3.87328L0.933269 3.87656L0.931628 3.87961L0.929753 3.88313L0.927878 3.88641L0.926238 3.88945L0.924363 3.89273L0.922488 3.89602L0.920613 3.89953L0.918738 3.90305L0.917097 3.90633L0.915222 3.90984L0.911238 3.91711L0.909363 3.92063L0.907488 3.92414L0.905613 3.92789L0.901628 3.93539L0.899753 3.93914L0.897878 3.94289L0.896003 3.94664L0.893894 3.95039L0.891785 3.95414L0.88991 3.95789L0.885925 3.96539L0.88405 3.96914L0.882175 3.97289L0.8803 3.97664L0.878191 3.98039L0.876081 3.98414L0.873972 3.98813L0.869753 3.99586L0.867644 4.00008L0.865535 4.00406L0.863425 4.00805L0.859206 4.01602L0.857097 4.02L0.852878 4.02797L0.84866 4.03594L1.26491 4.25156C1.43343 3.92625 1.62725 3.61453 1.84428 3.31945L1.45546 3.0607ZM0.382253 5.13281C0.34405 5.24742 0.30866 5.36344 0.276082 5.48063L0.273738 5.4893L0.271394 5.49797L0.267878 5.51109L0.265535 5.51977L0.263191 5.5282V5.53242V5.53664V5.54086L0.261082 5.54906V5.55305V5.5568V5.56078V5.56453V5.56852V5.57227V5.57602V5.57977V5.58305V5.5868V5.59008V5.59383V5.59758V5.60086V5.60438V5.60719V5.60836V5.61188V5.61305V5.61609V5.61961V5.62102V5.62406V5.6257V5.62828V5.62992V5.6332V5.63461V5.63719V5.63859V5.64188V5.64352V5.64609V5.64797V5.65055V5.65219V5.655V5.65688V5.65898V5.66086V5.66391V5.66578V5.66789V5.67023V5.67258V5.67469V5.67633V5.67961V5.68148V5.68336V5.68547V5.68852V5.69039V5.69227V5.69531V5.69742V5.69906V5.70164V5.70398V5.70609V5.70797V5.71102V5.71289V5.715V5.71664V5.71992V5.72156V5.72367V5.72672V5.72883V5.73023V5.73375V5.73539V5.7375V5.73891V5.74242V5.74383V5.74594V5.74758V5.75109V5.7525V5.75625V5.75742V5.75977V5.76117V5.76492V5.76609V5.76844V5.76984V5.77359V5.78906V5.79141V5.79633V5.80078V5.80312V5.80453V5.80828V5.8125V5.81484V5.81906L0.18866 5.82844V5.83336V5.83594V5.84039V5.84297V5.84742L0.18116 5.85938V5.86055V5.86477V5.86711V5.87109V5.87227V5.87461V5.87859V5.88281L0.179519 5.89031V5.89148V5.89523V5.89664V5.89898V5.90039V5.90438V5.90672V5.91117V5.91258V5.91633V5.91773V5.92008V5.92148V5.92547V5.92969V5.93203V5.93344V5.93695V5.93836V5.94047V5.94281V5.94562V5.94727V5.95031V5.95219V5.9543V5.95594V5.95922V5.96086V5.96297V5.96484V5.96789V5.96977V5.97187V5.97492V5.97703V5.97891V5.98172V5.98383V5.9857V5.98805V5.99039V5.99297V5.99461V5.99766V5.99953V6.00187V6.00352V6.0068V6.00844V6.01102V6.01242V6.01594V6.01758V6.02039V6.02203V6.02484V6.02625V6.02977V6.03117V6.03398V6.03516V6.03867V6.03984V6.04266V6.04617V6.04688V6.05039V6.05344V6.05719V6.0607V6.06469V6.06844V6.07266V6.07687V6.08086V6.08508V6.08953V6.09398L0.177878 6.10266C0.168035 6.15539 0.15866 6.20859 0.149753 6.2618L0.612175 6.3382C0.671941 5.9768 0.759831 5.62078 0.875144 5.2732L0.429832 5.12531L0.382253 5.13281ZM0.00115967 7.43625V7.44398V7.4782V7.5V7.54805V7.95234V7.96008V7.98773V7.99219V7.99992V8.03109V8.03883V8.04656V8.05969V8.06437V8.06859V8.07351V8.07727V8.08477V8.08875V8.09367V8.10703V8.11148V8.11594V8.12344V8.12766V8.13211V8.18437V8.18836V8.28211V8.28563V8.29078V8.2943V8.29945V8.30297V8.30813V8.31141V8.31469V8.32031V8.32383V8.32898V8.3325V8.33742V8.34117V8.34445V8.34844V8.35219V8.36016V8.36391V8.36789V8.37164V8.37984V8.38805V8.39625C0.00936279 8.46445 0.018269 8.53219 0.0283472 8.59969L0.492175 8.53125C0.459832 8.18859 0.452332 7.84383 0.46991 7.5V7.44023L0.00115967 7.43625ZM0.790066 9.60539L0.342878 9.74602C0.361394 9.80461 0.380378 9.86297 0.400066 9.92109L0.412019 9.95578C0.422097 9.98461 0.432175 10.0134 0.442488 10.0423C0.539519 10.3118 0.652019 10.5755 0.779519 10.8319L1.19928 10.6233C1.03639 10.2954 0.899519 9.95508 0.790066 9.60539ZM1.76296 11.565L1.38116 11.8359C1.60639 12.1533 1.856 12.4528 2.12764 12.7317L2.13069 12.735L2.46632 12.4069C2.21038 12.1441 1.9753 11.8622 1.76319 11.5631L1.76296 11.565ZM3.29132 13.1325L3.01007 13.5075C3.24608 13.6842 3.49241 13.8469 3.74764 13.9948L3.75983 14.0018L3.76686 14.0058L3.77132 14.0084L3.77811 14.0123L3.78233 14.0147L3.78468 14.0159L3.78843 14.018L3.79194 14.0201H3.79405L3.79757 14.022H3.79968H3.80132L3.80413 14.0236H3.80553L3.80858 14.0252H3.81022H3.8121H3.8135L3.81632 14.0269H3.81796H3.8196L3.82241 14.0285H3.82405H3.82593L3.82827 14.0297H3.83014H3.83179L3.8346 14.0313H3.836H3.83811H3.83952L3.84257 14.033H3.84397L3.84632 14.0344H3.84819L3.8503 14.0355H3.85171L3.85475 14.0372H3.85616L3.8585 14.0384H3.86014L3.86272 14.0398H3.86436L3.86718 14.0414H3.86835L3.87069 14.0428L3.87374 14.0445L3.87679 14.0461L3.8796 14.0477L3.88311 14.0496L3.88593 14.0512L3.88921 14.0531L3.89249 14.055L3.89553 14.0566L3.89905 14.0585L3.90257 14.0604L3.90632 14.0625L3.91007 14.0646L3.91382 14.0667L3.91757 14.0688L3.92132 14.0709L3.92507 14.073L3.92882 14.0752L3.93678 14.0794L3.94077 14.0815L3.94475 14.0836L3.94874 14.0857L3.95647 14.0899L3.96046 14.092L3.96843 14.0963L3.98038 14.1026L4.21991 13.7198C3.896 13.5485 3.58616 13.3521 3.29272 13.1325H3.29132ZM5.22585 14.1562L5.07421 14.5999C5.36671 14.7 5.6653 14.7816 5.96788 14.8444L5.97678 14.8463L5.98569 14.8481H5.99014L5.99858 14.8498L6.00678 14.8514H6.01077H6.01452H6.0185H6.02225H6.02624H6.03022H6.0335H6.03725H6.03843H6.04147H6.04499H6.04639H6.04944H6.05085H6.05366H6.0553H6.05858H6.05999H6.06233H6.07147H6.07475H6.07639H6.07874H6.08085H6.08366H6.0853H6.08764H6.09046H6.09257H6.09444H6.09679H6.09936H6.101H6.10335H6.10593H6.10827H6.10968H6.11389H6.11647H6.12093L6.12889 14.8528L6.1371 14.8542H6.14272L6.15139 14.8559L6.20366 14.865L6.28382 14.4033C5.92522 14.3484 5.57155 14.2659 5.22585 14.1562ZM8.47803 14.4652C8.15436 14.5095 7.82788 14.5317 7.50116 14.5312C7.46132 14.5312 7.42147 14.5312 7.38163 14.5312L7.37389 15H7.40178H8.05991H8.06741H8.09249H8.09999H8.10444H8.11217H8.12483H8.13257H8.13678H8.14475H8.14897H8.15671H8.16843H8.18061H8.18858L8.21202 14.9977C8.32241 14.9871 8.43186 14.9745 8.54014 14.9592L8.47569 14.4949L8.47803 14.4652ZM10.5715 13.8281C10.2422 13.9882 9.90069 14.122 9.5503 14.2287L9.68671 14.6773C10.0605 14.5636 10.425 14.4206 10.7766 14.2498L10.5715 13.8281ZM12.367 12.5766C12.1024 12.8302 11.8186 13.0629 11.5179 13.2727L11.786 13.6573L11.7881 13.6559H11.7893L11.7921 13.654H11.7935L11.7956 13.6523H11.7973L11.7994 13.6509H11.8008L11.8036 13.6491H11.8048L11.8066 13.6477L11.8085 13.6465L11.8106 13.6451H11.8123L11.8141 13.6437L11.8165 13.642H11.8179H11.8195L11.8221 13.6402H11.8237L11.8254 13.639L11.8277 13.6373H11.8291L11.831 13.6362L11.8333 13.6345L11.835 13.6334H11.8364L11.839 13.6315H11.8406L11.8423 13.6303H11.8437L11.8465 13.6282L11.8498 13.6259L11.8516 13.6245L11.8549 13.6221L11.8568 13.6207L11.8608 13.6177L11.8645 13.6151L11.8666 13.6134L11.8708 13.6104L11.8772 13.6057L11.8809 13.6029L11.8875 13.5982L11.9074 13.5703L11.9142 13.5654L11.9187 13.5621L11.9252 13.5572C12.0216 13.4866 12.116 13.4142 12.2086 13.3395L12.2194 13.3308L12.2367 13.3167L12.2538 13.3027L12.2644 13.294L12.2705 13.2888L12.274 13.286L12.2803 13.2806L12.2843 13.2773L12.2864 13.2757L12.2901 13.2724L12.2941 13.2691L12.2962 13.2675L12.3 13.2645L12.3061 13.2593L12.3096 13.2563L12.3157 13.2511L12.3194 13.248L12.3213 13.2464L12.3246 13.2436L12.3305 13.2387L12.3333 13.2363L12.3351 13.2349L12.3382 13.2323L12.3527 13.2188L12.3546 13.2171L12.3574 13.2145L12.363 13.2096L12.3658 13.2073L12.3675 13.2059L12.3691 13.2045L12.3715 13.2026H12.3726L12.3752 13.2005L12.3766 13.1993L12.3783 13.1979L12.3797 13.1967L12.382 13.1946H12.3834L12.3848 13.1932L12.3872 13.1913L12.3888 13.1899L12.3902 13.1888L12.3923 13.1869L12.394 13.1855L12.3954 13.1843L12.3977 13.1824L12.3991 13.1813L12.4008 13.1798L12.4024 13.1784L12.4045 13.1766H12.4059L12.4078 13.1749L12.4097 13.1733L12.4113 13.1719H12.4127L12.4151 13.1698L12.4165 13.1684L12.423 13.1592L12.4249 13.1576L12.4268 13.1559L12.4282 13.1548L12.4305 13.1527H12.4319L12.4336 13.1512L12.4352 13.1498L12.4373 13.148H12.4385L12.4406 13.1461L12.4423 13.1447L12.4441 13.143H12.4453L12.4476 13.1409L12.449 13.1398L12.4507 13.1384L12.4523 13.137L12.4542 13.1353H12.4554L12.458 13.1332L12.4612 13.125H12.4624L12.4648 13.1229H12.4659L12.4683 13.1208L12.4701 13.1191L12.4727 13.117H12.4739L12.476 13.1152H12.4772L12.4793 13.1133L12.4819 13.1109L12.484 13.1091L12.4866 13.1067L12.4891 13.1044L12.4912 13.1025L12.4938 13.1002L12.4962 13.098L12.4987 13.0957L12.5015 13.0934L12.5039 13.0912L12.5067 13.0887L12.5095 13.0861L12.5119 13.084L12.5147 13.0816L12.5173 13.0793L12.5198 13.077L12.5402 13.0547L12.543 13.0521L12.5461 13.0495L12.5489 13.047L12.5515 13.0446L12.5545 13.0418L12.5573 13.0392L12.5601 13.0366L12.563 13.0341L12.5655 13.0317L12.5683 13.0291L12.5712 13.0266L12.5737 13.0242L12.5765 13.0216L12.5794 13.0191L12.5822 13.0165L12.585 13.0139L12.588 13.0111L12.5911 13.0083L12.5941 13.0055L12.5969 13.0029L12.5998 13.0001L12.6028 12.9973L12.6058 12.9945L12.6087 12.9919L12.6115 12.9893L12.6145 12.9865L12.6173 12.9837L12.6199 12.9811L12.6227 12.9785L12.6255 12.9757L12.6283 12.9729L12.6314 12.9701L12.6344 12.9673L12.6375 12.9645L12.6574 12.9462L12.6602 12.9434L12.6633 12.9405L12.6694 12.9349L12.6724 12.9321L12.6755 12.9293L12.6785 12.9265L12.6813 12.9237L12.6839 12.9211L12.6867 12.9183L12.3623 12.5798L12.367 12.5766ZM13.6933 10.8354C13.5192 11.1579 13.3202 11.4661 13.0983 11.7577L13.4712 12.0417C13.5551 11.9323 13.6359 11.8198 13.7137 11.7042L13.7215 11.693L13.7264 11.6857L13.7287 11.6822L13.7311 11.6787L13.7334 11.6752L13.7358 11.6719L13.7379 11.6688L13.74 11.6655L13.7421 11.6625L13.7442 11.6595L13.7463 11.6564L13.748 11.6538L13.7498 11.651V11.6496L13.7515 11.647V11.6456L13.7529 11.6435V11.6421L13.7548 11.6393V11.6379L13.7559 11.636L13.7573 11.6337V11.632V11.6304L13.7587 11.6283L13.7601 11.6262V11.6245L13.7618 11.622V11.6203L13.763 11.6184V11.6173L13.7651 11.6142L13.7693 11.6079L13.7716 11.6041L13.7761 11.5971L13.7805 11.5901C13.8907 11.4204 13.9941 11.2463 14.0906 11.0674L13.6781 10.8448L13.6933 10.8354ZM14.4183 8.77289C14.3524 9.13313 14.2584 9.48773 14.137 9.8332L14.5793 9.98859C14.5987 9.93352 14.6175 9.8782 14.6355 9.82242L14.6381 9.81445L14.6407 9.80648L14.6423 9.80133V9.79875L14.6437 9.7943L14.6461 9.7868L14.6473 9.78281V9.7807V9.7793V9.77578V9.77437V9.77227V9.77086V9.76758V9.76594V9.76406V9.76102V9.75914V9.75727V9.75469V9.75258V9.7507V9.74836V9.74625V9.74391V9.74227V9.73899V9.73758V9.735V9.73359V9.73031V9.72891V9.72633V9.72492V9.72164V9.72023V9.71719V9.71555V9.71297V9.71156V9.70828V9.70687V9.70406V9.70055V9.69938V9.69609V9.69258V9.68883V9.68555V9.6818V9.67852V9.67477V9.67102V9.66727L14.6484 9.66305V9.6593L14.6496 9.65531L14.6519 9.64734L14.6543 9.63914L14.6555 9.63492L14.6566 9.6307L14.7002 9.60938L14.7026 9.60094L14.7063 9.58805L14.7089 9.57938L14.7115 9.5707C14.7497 9.43758 14.7841 9.30305 14.8151 9.16711L14.8172 9.1582L14.819 9.14953V9.14531V9.14109V9.13688L14.8209 9.12844V9.12422V9.12023V9.11625V9.1125V9.10852V9.10453V9.10078V9.09703V9.09375V9.09V9.08672V9.08344V9.0818V9.07828V9.07711V9.07453V9.06328V9.06V9.05836V9.05602V9.05437V9.05133V9.04969V9.04734V9.04477V9.04266V9.04078V9.03867V9.03586V9.03398V9.03187V9.02883V9.02672V9.02508V9.02133V9.01992V9.01758V9.01641V9.01242V9.01125L14.8226 9.00352L14.8242 8.99531V8.98992C14.8331 8.94586 14.8415 8.90133 14.8498 8.8568L14.3887 8.77266L14.4183 8.77289ZM14.9383 6.52289L14.4736 6.58336C14.513 6.88734 14.5324 7.19344 14.5324 7.5C14.5324 7.55977 14.5317 7.61953 14.5301 7.67906L14.9988 7.69078C14.9988 7.67273 14.9988 7.65445 14.9988 7.63617V7.58367V7.58109V7.57852V7.57594V7.50562V7.5V7.28227V7.27688V7.26211V7.25859V7.24734V7.24219V7.23328V7.23047V7.21852V7.21547V7.20352C14.9899 6.97312 14.9707 6.74555 14.9414 6.52102L14.9383 6.52289ZM14.2783 4.28414L13.8551 4.48547C14.0121 4.81547 14.1429 5.15742 14.2465 5.50781L14.696 5.37539C14.5856 5.00062 14.4457 4.635 14.2779 4.28203L14.2783 4.28414ZM12.96 2.35781L12.619 2.67937C12.8702 2.94609 13.1006 3.23203 13.3078 3.53437L13.6945 3.26953C13.6633 3.22266 13.6312 3.17695 13.5984 3.13242L13.5902 3.12094L13.5855 3.11438L13.5825 3.11016L13.5808 3.10781L13.5778 3.10359L13.5715 3.09375L13.5689 3.09023L13.5644 3.08414L13.5623 3.08133V3.08016L13.5612 3.07828V3.07687L13.5593 3.0743V3.07289V3.07125L13.5574 3.06867V3.06703V3.06539L13.5558 3.06305V3.06141L13.5546 3.05977L13.5527 3.05719V3.05578L13.5513 3.05414L13.5501 3.0525L13.5485 3.05016V3.04898L13.5466 3.04664V3.045L13.5452 3.04313V3.04195L13.5433 3.03938V3.03797L13.5417 3.03586L13.5405 3.03422L13.5389 3.03211V3.03094L13.5368 3.02813L13.5349 3.02578L13.5328 3.02273L13.5307 3.01992L13.5288 3.01734L13.5265 3.0143L13.5241 3.01125L13.5012 3L13.4988 2.99695L13.4967 2.99391L13.4944 2.99063L13.492 2.98734L13.4897 2.9843L13.4871 2.98102L13.4819 2.97422L13.4777 2.96719L13.4726 2.96039L13.47 2.95688L13.4672 2.95336L13.4646 2.94984L13.4592 2.94281L13.4508 2.93203L13.4423 2.92125L13.4367 2.91398C13.3587 2.8125 13.2776 2.71336 13.1937 2.61609L13.1878 2.6093L13.1801 2.60156L13.1773 2.59828L13.1716 2.59172L13.1688 2.58844L13.166 2.58539L13.1632 2.58234L13.1606 2.5793L13.158 2.57648L13.1555 2.57367L13.1496 2.56641L13.1473 2.56359L13.1449 2.56078L13.1428 2.55844L13.1402 2.55562L13.1379 2.55305L13.136 2.55094L13.1337 2.54836L13.1262 2.53945V2.53805L13.1243 2.53594V2.53477L13.1222 2.53219V2.53102L13.1208 2.52938L13.1194 2.52773L13.1177 2.52586L13.1166 2.52445L13.1147 2.52258L13.113 2.5207L13.1119 2.5193L13.11 2.51695L13.1086 2.51531L13.1072 2.51367V2.5125L13.1048 2.50992L13.098 2.50781L13.0952 2.50453L13.0924 2.50125L13.0908 2.49937L13.0873 2.49563L13.0819 2.48953L13.0781 2.48555C13.0399 2.44313 13.0012 2.40117 12.9621 2.35969L12.96 2.35781ZM11.115 0.928125L10.8883 1.33594C11.2092 1.51289 11.5158 1.71445 11.8055 1.93898L12.0928 1.57031L12.0898 1.56797L12.0837 1.56328L12.0804 1.5607L12.0785 1.5593L12.0752 1.55672L12.0715 1.55391L12.0628 1.54688L12.0593 1.5443L12.053 1.53961L12.048 1.53422L12.0415 1.5293L12.0335 1.52344L12.0293 1.52016L12.0227 1.515L12.0117 1.50656C11.9351 1.44891 11.8575 1.39266 11.779 1.33805L11.7668 1.33031L11.7366 1.30945L11.7295 1.30477L11.7248 1.30172L11.718 1.29703L11.7138 1.29422L11.7115 1.29258L11.7066 1.28906L11.7 1.28461L11.6965 1.28227L11.6944 1.28086L11.6904 1.27828L11.6862 1.27547L11.6841 1.27406L11.6803 1.27148L11.6737 1.26703L11.67 1.26445L11.6679 1.26305L11.6644 1.2607L11.6611 1.25836L11.6496 1.25109L11.6458 1.24875L11.6395 1.24453L11.636 1.24219L11.6339 1.24078L11.6301 1.23844L11.6264 1.23586L11.6245 1.23469L11.6212 1.23258L11.6194 1.23141H11.618L11.6151 1.22953H11.614L11.6027 1.22063H11.6016L11.6008 1.21875H11.5994L11.5966 1.21687H11.5952L11.5929 1.21523L11.591 1.21406H11.5891H11.5877L11.5849 1.21219H11.5835H11.5819L11.5793 1.20469H11.5776H11.576L11.5739 1.20328L11.5718 1.20187H11.5701H11.5685L11.5662 1.20023H11.5645H11.5629L11.5603 1.19859H11.5587H11.557L11.5544 1.19695H11.5526H11.5509L11.5486 1.19531H11.5469L11.5451 1.19414H11.5437L11.5408 1.19227H11.5394L11.5373 1.19086L11.5355 1.18969L11.5324 1.17492H11.531L11.5291 1.17188H11.5277L11.5258 1.1707L11.524 1.16953L11.5216 1.16813H11.5202L11.5176 1.16648H11.516L11.5139 1.16508H11.5125L11.509 1.16016H11.5076L11.5052 1.15875H11.5036L11.5012 1.15734H11.4998L11.497 1.15547H11.4956L11.4937 1.1543L11.4928 1.14844H11.4907H11.4893L11.4855 1.14539H11.4841L11.482 1.14398H11.4806L11.4778 1.14211H11.4764L11.4741 1.1407H11.4726L11.4703 1.1393H11.4689L11.4658 1.13742L11.4635 1.13602L11.4607 1.13414H11.4595L11.4553 1.125L11.4527 1.12336L11.4497 1.12148H11.4485L11.4462 1.12008H11.4448L11.4422 1.11844H11.441L11.438 1.11656L11.4356 1.11516H11.4344L11.4314 1.11328L11.4283 1.11141L11.4258 1.10977L11.4164 1.10156L11.4138 1.09992L11.4105 1.09805L11.4075 1.09617L11.4049 1.09453L11.4019 1.09266L11.3918 1.08727L11.3885 1.08516L11.3852 1.08328L11.3824 1.08164L11.3775 1.07812L11.3742 1.07625L11.3716 1.07461L11.3686 1.07273L11.3655 1.07086L11.3625 1.06898L11.3592 1.06711L11.3564 1.06547L11.3449 1.05914L11.3416 1.05727L11.3383 1.05469L11.3353 1.05281L11.3325 1.05117L11.3294 1.0493L11.3215 1.04484L11.3184 1.04297L11.3151 1.04109L11.3119 1.03922L11.309 1.03758L11.3058 1.0357L11.298 1.03125L11.2948 1.02938L11.2915 1.0275L11.2887 1.02586L11.2854 1.02398L11.2821 1.02211L11.2746 1.01719L11.2713 1.01531L11.2685 1.01367L11.2629 1.01016L11.2587 1.00781L11.2558 1.00617L11.2512 1.00336L11.2483 1.00172L11.2455 1.00008L11.2425 0.998203L11.2397 0.996562L11.2364 0.994687L11.2277 0.989297L11.2251 0.987891L11.2193 0.984375H11.2181L11.2153 0.982734L11.2125 0.981094H11.2111L11.208 0.979453L11.2043 0.975937L11.2012 0.974063L11.198 0.972187L11.1954 0.970781H11.1942L11.1912 0.969141H11.1898L11.1874 0.967734H11.1858L11.1834 0.966328H11.182L11.1752 0.960938H11.174L11.1719 0.959766H11.1705L11.1675 0.958125H11.1661L11.1637 0.956719H11.1619L11.1598 0.955547H11.1583L11.1553 0.953906H11.1539L11.1516 0.952734H11.1497L11.1473 0.951562H11.1457L11.1429 0.949922H11.1412H11.1394H11.1377L11.1354 0.9375H11.134H11.1321L11.1295 0.936094H11.1279H11.1262L11.1234 0.934687H11.1215H11.1199L11.1173 0.933281H11.1155L11.115 0.928125ZM8.91913 0.133828L8.831 0.594141C9.19077 0.663047 9.54444 0.760078 9.88897 0.884297L10.0481 0.443437C9.8435 0.369609 9.63468 0.304453 9.42186 0.248203L9.3996 0.242344L9.39093 0.24L9.3778 0.236484L9.36866 0.234375L9.35999 0.232031H9.356H9.35225H9.34827L9.33772 0.226406H9.33374H9.32999H9.326H9.32225H9.3185H9.31475H9.311H9.30725H9.30397H9.30022H9.29671H9.29272H9.28897H9.28592H9.28218H9.27913H9.27538H9.27421H9.27069H9.26764H9.26624H9.26272H9.24725H9.24444H9.24303H9.23952H9.23835L9.23553 0.201563H9.23436H9.23108H9.22968H9.22639H9.22499H9.22241H9.221H9.21749H9.21608H9.2135H9.2121H9.20882H9.20718H9.20436H9.20272H9.19991H9.1985H9.19499H9.19382H9.19124H9.18866H9.18514H9.18374H9.18116H9.17952H9.17647H9.17507H9.17202H9.17038H9.1678H9.16616H9.16288H9.16147H9.15889H9.15819H9.15468H9.15327H9.15046H9.14882H9.14577H9.14413L9.14178 0.179766H9.13944H9.1371H9.13546H9.13218H9.13053H9.12819H9.12655H9.1235H9.12186H9.11905H9.11718H9.1146H9.11296H9.10944H9.10803H9.10546H9.10428H9.10077H9.09913H9.09655H9.09468H9.09186H9.09022H9.08671H9.08553H9.08296H9.08155H9.07803H9.07663H9.07405H9.07147L9.06913 0.164062H9.06772H9.06491H9.06303H9.06046H9.05905H9.05553H9.05413H9.05132H9.05014H9.04663H9.04522H9.04241H9.03889H9.03632H9.03257H9.02952H9.02835L9.0246 0.154688H9.02155H9.0178H9.01405H9.01053H9.00936L9.00116 0.15H8.99811H8.99436H8.99319H8.98991H8.98616L8.97772 0.145313H8.97421H8.97046H8.96694H8.96296H8.95921H8.95522H8.95124H8.94749H8.9435H8.93975H8.93577L8.9196 0.133828H8.91913ZM7.50116 0V0.46875C7.58108 0.46875 7.66077 0.470156 7.73999 0.472734L7.75569 0.00398438C7.70319 0.00257813 7.65092 0.00117187 7.59842 0H7.50116Z" fill="white"/>
<path d="M7.50234 13.3617C10.7397 13.3617 13.3641 10.7373 13.3641 7.5C13.3641 4.26266 10.7397 1.63828 7.50234 1.63828C4.26501 1.63828 1.64062 4.26266 1.64062 7.5C1.64062 10.7373 4.26501 13.3617 7.50234 13.3617Z" fill="white" fill-opacity="0.5"/>
</svg>
