<svg width="15" height="15" viewBox="0 0 15 15" fill="none" xmlns="http://www.w3.org/2000/svg">
<path d="M12.9442 7.57852H12.1792C12.1792 5.08189 10.1486 3.0518 7.65337 3.0518L7.65291 2.2877C10.5711 2.28632 12.9442 4.66035 12.9442 7.57852ZM7.65291 3.60742L7.65245 4.37152C9.42172 4.37152 10.859 5.81017 10.8581 7.57806L11.6231 7.5776C11.6231 5.38863 9.84326 3.60742 7.65291 3.60742ZM7.5 0C3.36405 0 0 3.36405 0 7.50046C0 11.636 3.36405 15 7.5 15C7.75577 15 7.96241 14.7934 7.96241 14.5381C7.96241 14.2814 7.75577 14.0743 7.5 14.0743C3.87421 14.0743 0.925274 11.1244 0.925274 7.50046C0.925274 3.87467 3.87421 0.925274 7.5 0.925274C11.1258 0.925274 14.0743 3.87513 14.0743 7.50046C14.0743 9.01534 13.2679 10.5164 12.114 11.1529C11.6947 11.3834 11.2401 11.4977 10.7552 11.5023C11.0463 11.3292 11.2984 11.095 11.4858 10.8002C11.5225 10.7447 11.5712 10.6955 11.5951 10.6354C11.7457 10.2731 11.759 9.86209 11.8499 9.47912C11.9615 8.99054 9.71101 8.03588 9.5154 8.64615C9.44468 8.87207 9.33631 9.58657 9.19442 9.77484C9.06814 9.94291 8.75681 9.86301 8.56211 9.6977C8.0492 9.26055 7.47658 8.61814 6.97422 8.11027L6.97514 8.10981C6.96229 8.09649 6.94667 8.0818 6.9329 8.06756C6.91866 8.05425 6.90443 8.03909 6.89019 8.02532V8.02624C6.38232 7.52296 5.73945 6.95172 5.30276 6.43789C5.13745 6.24319 5.05755 5.93186 5.22562 5.80558C5.41389 5.66277 6.12839 5.55624 6.35431 5.4846C6.9632 5.2899 6.00992 3.03802 5.52042 3.15006C5.13837 3.23961 4.72739 3.2543 4.36509 3.404C4.30356 3.43017 4.2558 3.47747 4.20024 3.5142C2.91496 4.32881 2.74919 6.30702 4.0037 7.78103C4.48172 8.34492 4.98041 8.89044 5.49379 9.4231L5.49103 9.42494C5.50527 9.43917 5.51996 9.45249 5.53465 9.46626C5.54843 9.4805 5.56175 9.49473 5.57506 9.50989L5.57782 9.50713C6.11048 10.0205 6.74187 10.7768 7.76771 11.461C9.92729 12.9033 11.5845 12.5006 12.5608 11.9652C14.246 11.0372 15 9.05483 15 7.5023C15 3.36405 11.6355 0 7.5 0Z" fill="#60D3DB"/>
</svg>
